<svg viewBox="0 0 256 256" xmlns="http://www.w3.org/2000/svg" xmlns:xlink="http://www.w3.org/1999/xlink" width="256.000000" height="256.000000" fill="none">
	<defs>
		<clipPath id="clipPath_1">
			<rect width="256.000000" height="256.000000" x="0.000000" y="0.000000" fill="rgb(255,255,255)" />
		</clipPath>
	</defs>
	<rect id="ico" width="256.000000" height="256.000000" x="0.000000" y="0.000000" fill="rgb(255,255,255)" fill-opacity="0" />
	<g id="skill 1" clip-path="url(#clipPath_1)" customFrame="url(#clipPath_1)">
		<rect id="skill 1" width="256.000000" height="256.000000" x="0.000000" y="0.000000" />
		<rect id="矩形 19" width="174.000000" height="174.000000" x="41.000000" y="37.000000" fill="rgb(255,255,255)" />
		<path id="矢量 47" d="M128 0C198.695 0 256 57.3055 256 128C256 198.695 198.695 256 128 256C57.3055 256 0 198.695 0 128C0 57.3055 57.3055 0 128 0ZM128.025 36.48C115.481 36.48 105.318 46.592 105.318 59.0975C105.318 69.056 111.769 77.504 120.729 80.5247L120.729 94.0928L93.1582 109.888C91.8055 110.666 90.6815 111.787 89.8995 113.137C89.1176 114.488 88.7051 116.02 88.7037 117.581L88.7037 148.211L77.9517 154.419C74.7397 151.61 70.7986 149.767 66.5836 149.103C62.3686 148.439 58.0516 148.98 54.1313 150.665C50.2111 152.35 46.8474 155.11 44.4289 158.625C42.0104 162.141 40.6356 166.269 40.4635 170.532C40.2913 174.796 41.3288 179.021 43.456 182.72C45.5788 186.436 48.7139 189.472 52.4958 191.474C56.2778 193.477 60.551 194.363 64.8174 194.03C69.0839 193.698 73.1679 192.159 76.5936 189.594C80.0193 187.03 82.6456 183.544 84.1665 179.544C85.6874 175.544 86.0403 171.194 85.184 167.001L95.04 161.28L123.546 177.639C124.904 178.414 126.442 178.822 128.006 178.822C129.571 178.822 131.108 178.414 132.467 177.639L160.934 161.306L170.803 167.015C169.884 171.649 170.438 176.454 172.387 180.758C174.336 185.061 177.582 188.648 181.67 191.015C185.796 193.24 190.512 194.128 195.165 193.556C199.818 192.984 204.178 190.98 207.643 187.822C211.107 184.664 213.505 180.507 214.504 175.927C215.503 171.347 215.054 166.569 213.219 162.255C211.384 157.941 208.254 154.304 204.262 151.847C200.177 149.485 195.454 148.464 190.758 148.928C186.063 149.392 181.631 151.317 178.086 154.432L167.334 148.237L167.334 117.593C167.331 116.035 166.917 114.505 166.135 113.157C165.353 111.809 164.231 110.69 162.88 109.913L135.322 94.08L135.322 80.5247C139.357 79.1382 142.918 76.6399 145.595 73.3175C148.272 69.9951 149.956 65.984 150.453 61.7463C150.949 57.5086 150.239 53.2168 148.402 49.3655C146.566 45.5141 143.679 42.26 140.074 39.978C136.469 37.696 132.292 36.479 128.025 36.4673L128.025 36.48ZM197.798 163.046C199.316 163.869 200.587 165.083 201.477 166.562C202.368 168.041 202.847 169.732 202.864 171.459C202.881 173.185 202.435 174.885 201.574 176.381C200.713 177.878 199.467 179.116 197.965 179.969C196.464 180.822 194.761 181.257 193.035 181.23C191.309 181.202 189.621 180.714 188.147 179.814C186.431 178.768 185.084 177.213 184.293 175.366C183.501 173.518 183.304 171.47 183.73 169.506C184.155 167.542 185.181 165.759 186.666 164.405C188.151 163.05 190.02 162.192 192.015 161.949C194.01 161.705 196.031 162.089 197.798 163.046ZM71.411 166.592C72.2619 168.063 72.7107 169.731 72.7121 171.43C72.7136 173.129 72.2677 174.799 71.4194 176.271C70.571 177.743 69.3501 178.966 67.8793 179.816C66.4085 180.667 64.7396 181.115 63.0406 181.116C61.3416 181.117 59.6722 180.671 58.2003 179.822C56.7285 178.974 55.506 177.753 54.6557 176.281C53.6447 174.512 53.2179 172.468 53.4362 170.441C53.6546 168.415 54.5068 166.508 55.8717 164.995C57.2365 163.481 59.0443 162.436 61.0375 162.009C63.0307 161.583 65.1077 161.796 66.9726 162.619C68.8375 163.442 70.3952 164.832 71.4237 166.592L71.411 166.592ZM128 106.675L152.729 120.883L152.729 149.235L128 163.443L103.271 149.235L103.271 120.87L128 106.662L128 106.675ZM128 49.3952C129.921 49.3978 131.799 49.97 133.395 51.0396C134.992 52.1093 136.235 53.6282 136.968 55.4044C137.701 57.1806 137.891 59.1343 137.513 61.0183C137.136 62.9024 136.208 64.6323 134.848 65.9892C133.487 67.3461 131.755 68.2691 129.87 68.6415C127.985 69.0139 126.032 68.819 124.258 68.0813C122.483 67.3437 120.968 66.0965 119.902 64.4974C118.837 62.8983 118.269 61.0192 118.272 59.0977C118.272 53.7472 122.624 49.3952 128 49.3952Z" fill="rgb(79,142,243)" fill-rule="nonzero" />
	</g>
</svg>
