<svg xmlns="http://www.w3.org/2000/svg" width="256" height="256" fill="none" xmlns:v="https://vecta.io/nano"><defs><clipPath id="A"><path fill="#fff" d="M0 0h256v256H0z"/></clipPath></defs><path fill="#fff" fill-opacity="0" d="M0 0h256v256H0z"/><g clip-path="url(#A)"><path fill="#fff" d="M41 37h174v174H41z"/><path d="M128 0c70.695 0 128 57.306 128 128s-57.305 128-128 128S0 198.695 0 128 57.306 0 128 0zm.025 36.48c-12.544 0-22.707 10.112-22.707 22.618 0 9.959 6.451 18.407 15.411 21.427v13.568l-27.571 15.795c-1.353.778-2.477 1.899-3.259 3.249s-1.194 2.883-1.196 4.444v30.63l-10.752 6.208c-3.212-2.809-7.153-4.652-11.368-5.316a22.62 22.62 0 0 0-22.155 9.522 22.62 22.62 0 0 0-3.965 11.907c-.172 4.264.865 8.489 2.992 12.188 2.123 3.716 5.258 6.752 9.04 8.754s8.055 2.889 12.322 2.556a22.57 22.57 0 0 0 11.776-4.436c3.426-2.564 6.052-6.05 7.573-10.05a22.58 22.58 0 0 0 1.017-12.543l9.856-5.721 28.506 16.359a9 9 0 0 0 4.46 1.183c1.565 0 3.102-.408 4.461-1.183l28.467-16.333 9.869 5.709a22.64 22.64 0 0 0 1.584 13.743c1.949 4.303 5.195 7.89 9.283 10.257a22.62 22.62 0 0 0 25.973-3.193 22.62 22.62 0 0 0 6.861-11.895c.999-4.58.55-9.358-1.285-13.672s-4.965-7.951-8.957-10.408a22.55 22.55 0 0 0-13.504-2.919 22.56 22.56 0 0 0-12.672 5.504l-10.752-6.195v-30.644c-.003-1.558-.417-3.088-1.199-4.436s-1.904-2.467-3.255-3.244L135.322 94.08V80.525a22.64 22.64 0 0 0 10.273-7.207c2.677-3.322 4.361-7.334 4.858-11.571s-.214-8.529-2.051-12.381a22.64 22.64 0 0 0-8.328-9.387c-3.605-2.282-7.782-3.499-12.049-3.511v.013zm69.773 126.566c1.518.823 2.789 2.037 3.679 3.516s1.37 3.17 1.387 4.897a9.68 9.68 0 0 1-1.29 4.922 9.67 9.67 0 0 1-3.609 3.588c-1.501.853-3.204 1.288-4.93 1.261a9.68 9.68 0 0 1-4.888-1.416c-1.716-1.046-3.063-2.601-3.854-4.448a9.67 9.67 0 0 1 2.373-10.961 9.67 9.67 0 0 1 5.349-2.456c1.995-.244 4.016.14 5.783 1.097zm-126.387 3.546c.851 1.471 1.3 3.139 1.301 4.838a9.68 9.68 0 0 1-1.293 4.841c-.848 1.472-2.069 2.695-3.54 3.545s-3.14 1.299-4.839 1.3-3.368-.445-4.84-1.294-2.694-2.069-3.545-3.541a9.68 9.68 0 0 1 1.216-11.286c1.365-1.514 3.173-2.559 5.166-2.986s4.07-.213 5.935.61 3.423 2.213 4.451 3.973h-.013zM128 106.675l24.729 14.208v28.352L128 163.443l-24.729-14.208V120.87L128 106.662v.013zm0-57.28c1.921.003 3.799.575 5.395 1.644a9.71 9.71 0 0 1 4.118 9.979c-.377 1.884-1.305 3.614-2.665 4.971a9.72 9.72 0 0 1-4.978 2.652c-1.885.372-3.838.178-5.612-.56s-3.29-1.985-4.356-3.584-1.633-3.478-1.63-5.4c0-5.351 4.352-9.702 9.728-9.702z" fill="#4f8ef3"/></g></svg>